HIERARCHY
ROOT Hips
{
	OFFSET -3.958830 18.904000 13.208200
	CHANNELS 6 Xposition Yposition Zposition Zrotation Yrotation Xrotation 
	JOINT LHipJoint
	{
		OFFSET 0.000000 0.000000 0.000000
		CHANNELS 3 Zrotation Yrotation Xrotation
		JOINT LeftUpLeg
		{
			OFFSET 1.800000 -1.400000 0.085000
			CHANNELS 3 Zrotation Yrotation Xrotation
			JOINT LeftLeg
			{
				OFFSET 2.215000 -6.000000 0.000000
				CHANNELS 3 Zrotation Yrotation Xrotation
				JOINT LeftFoot
				{
					OFFSET 2.500000 -6.900000 0.000000
					CHANNELS 3 Zrotation Yrotation Xrotation
					JOINT LeftToeBase
					{
						OFFSET 0.200000 -0.500000 1.950000
						CHANNELS 3 Zrotation Yrotation Xrotation
						End Site
						{
							OFFSET 0.000000 0.000000 0.000000
						}
					}
				}
			}
		}
	}
	JOINT RHipJoint
	{
		OFFSET 0.000000 0.000000 0.000000
		CHANNELS 3 Zrotation Yrotation Xrotation
		JOINT RightUpLeg
		{
			OFFSET -1.800000 -1.400000 0.085000
			CHANNELS 3 Zrotation Yrotation Xrotation
			JOINT RightLeg
			{
				OFFSET -2.215000 -6.000000 0.000000
				CHANNELS 3 Zrotation Yrotation Xrotation
				JOINT RightFoot
				{
					OFFSET -2.500000 -6.900000 0.000000
					CHANNELS 3 Zrotation Yrotation Xrotation
					JOINT RightToeBase
					{
						OFFSET -0.200000 -0.500000 1.950000
						CHANNELS 3 Zrotation Yrotation Xrotation
						End Site
						{
							OFFSET 0.000000 0.000000 0.000000
						}
					}
				}
			}
		}
	}
	JOINT LowerBack
	{
		OFFSET 0.000000 0.000000 0.000000
		CHANNELS 3 Zrotation Yrotation Xrotation
		JOINT Spine
		{
			OFFSET -0.087000 1.940000 -0.288900
			CHANNELS 3 Zrotation Yrotation Xrotation
			JOINT Spine1
			{
				OFFSET 0.000000 1.950000 0.060000
				CHANNELS 3 Zrotation Yrotation Xrotation
				JOINT Neck
				{
					OFFSET 0.000000 0.000000 0.000000
					CHANNELS 3 Zrotation Yrotation Xrotation
					JOINT Neck1
					{
						OFFSET 0.000000 1.600000 0.340000
						CHANNELS 3 Zrotation Yrotation Xrotation
						JOINT Head
						{
							OFFSET 0.000000 1.667000 -0.240000
							CHANNELS 3 Zrotation Yrotation Xrotation
							End Site
							{
								OFFSET 0.000000 0.000000 0.000000
							}
						}
					}
				}
				JOINT LeftShoulder
				{
					OFFSET 0.000000 0.000000 0.000000
					CHANNELS 3 Zrotation Yrotation Xrotation
					JOINT LeftArm
					{
						OFFSET 2.700000 1.550000 -0.730000
						CHANNELS 3 Zrotation Yrotation Xrotation
						JOINT LeftForeArm
						{
							OFFSET 5.450000 0.000000 0.000000
							CHANNELS 3 Zrotation Yrotation Xrotation
							JOINT LeftHand
							{
								OFFSET 3.450000 0.000000 0.000000
								CHANNELS 3 Zrotation Yrotation Xrotation
								JOINT LeftHandIndex1
								{
									OFFSET 0.750000 0.000000 0.000000
									CHANNELS 3 Zrotation Yrotation Xrotation
									End Site
									{
										OFFSET 0.000000 0.000000 0.000000
									}
								}
							}
						}
					}
				}
				JOINT RightShoulder
				{
					OFFSET 0.000000 0.000000 0.000000
					CHANNELS 3 Zrotation Yrotation Xrotation
					JOINT RightArm
					{
						OFFSET -2.700000 1.550000 -0.730000
						CHANNELS 3 Zrotation Yrotation Xrotation
						JOINT RightForeArm
						{
							OFFSET -5.450000 0.000000 0.000000
							CHANNELS 3 Zrotation Yrotation Xrotation
							JOINT RightHand
							{
								OFFSET -3.450000 0.000000 0.000000
								CHANNELS 3 Zrotation Yrotation Xrotation
								JOINT RightHandIndex1
								{
									OFFSET -0.750000 0.000000 0.000000
									CHANNELS 3 Zrotation Yrotation Xrotation
									End Site
									{
										OFFSET 0.000000 0.000000 0.000000
									}
								}
							}
						}
					}
				}
			}
		}
	}
}
MOTION
Frames: 8
Frame Time: 0.016667
1.918000 17.019880 -4.368570 -2.246743 23.083431 2.803236 -15.351255 13.085840 2.248714 0.597027 -0.755366 -7.591732 -1.476466 5.197778 18.411066 -0.568158 4.380227 3.236001 0.313970 -0.082690 0.245040 18.232089 -9.615596 4.449558 -9.609401 7.978620 -37.435457 21.792035 -19.472062 47.527299 -1.404243 -9.339885 1.230704 0.047040 0.303710 0.299820 -3.616844 -2.227095 -7.995923 9.526125 -3.442967 11.719589 0.251320 -2.802525 -0.951421 3.009615 2.522641 -6.982090 3.343732 -3.797114 26.881508 -3.450830 -1.246990 -12.164170 -29.217618 -7.990001 1.823570 -53.406698 -6.110526 -1.464390 -17.423933 -11.669031 -0.266743 -3.921178 2.899953 0.579290 0.211000 -0.082290 0.166340 23.438227 6.161033 3.493585 51.507503 1.773822 -8.900713 7.493751 26.073905 -0.213092 1.979089 -1.307554 -0.272600 0.194250 0.068720 -0.271360 
1.926660 17.023180 -4.369870 -1.996915 23.611279 3.137206 -15.358887 13.084373 2.270012 0.101157 -0.853409 -8.050376 -1.180004 5.098129 18.697339 -0.608119 4.378329 3.248825 0.298000 -0.107160 0.248450 18.226924 -9.599569 4.453350 -9.622083 7.752931 -38.000359 22.042145 -18.924167 45.887932 -1.319258 -9.021579 1.328764 0.049150 0.325360 0.287240 -3.605711 -2.260647 -7.984223 9.430524 -3.752201 11.870554 0.105062 -3.091319 -0.787452 3.036909 2.571473 -7.123552 3.498966 -4.013739 26.140936 -3.691370 -1.333780 -12.693720 -28.852101 -8.436230 1.991843 -53.469551 -6.318206 -1.529399 -17.912314 -12.346072 -0.199669 -3.934854 2.865135 0.594470 0.220760 -0.092740 0.161250 22.986436 6.498037 3.614881 51.961810 2.016811 -9.192016 7.441386 27.177849 -0.233875 1.952758 -1.286638 -0.306090 0.232350 0.083890 -0.283620 
1.957940 17.030540 -4.335680 -2.364071 22.868843 3.053956 -15.322844 13.080160 2.293669 0.344802 -0.715364 -7.506920 -1.859807 5.232982 18.001414 -0.584223 4.376938 3.232199 0.315530 -0.083130 0.246980 18.260414 -9.623726 4.437511 -7.954214 8.216254 -38.221276 21.490850 -17.112643 43.007270 -1.156680 -8.258196 1.548108 0.051440 0.301760 0.307770 -3.708035 -2.168361 -7.972403 10.666254 -4.006726 12.016889 -0.564830 -3.199614 -0.525692 3.102419 2.316690 -7.348890 3.173742 -3.907650 25.604805 -3.289110 -1.404300 -13.279090 -28.393690 -8.834535 2.232217 -53.652760 -6.239162 -1.766309 -18.689091 -12.982377 -0.111213 -3.913579 2.925172 0.587390 0.206700 -0.079290 0.158100 22.231034 7.017567 3.871929 52.284906 2.210209 -9.526614 8.029703 28.505082 -0.135437 1.951008 -1.321066 -0.273920 0.195790 0.079900 -0.275260 
1.989870 17.032540 -4.279300 -2.847570 21.416813 3.224282 -15.285142 13.053348 2.310480 0.602185 -0.478218 -6.672422 -2.488371 5.296349 16.731945 -0.588949 4.370962 3.247329 0.339070 -0.057170 0.248560 18.307269 -9.654148 4.409471 -5.247559 9.020775 -38.469256 19.570491 -14.416589 39.642369 -0.921152 -7.185121 1.890618 0.075900 0.313380 0.307440 -3.809182 -2.002964 -7.901554 11.885234 -3.995336 11.672357 -1.029033 -3.098827 -0.182527 3.098441 2.018372 -7.377019 2.900039 -3.664451 24.293329 -2.823940 -1.416070 -13.535780 -28.159840 -8.868776 2.301452 -53.808407 -6.060412 -1.891705 -19.439963 -13.275249 -0.066741 -3.909524 2.956999 0.577610 0.211640 -0.090770 0.174740 21.880818 7.229264 3.971706 51.654914 2.294767 -9.702612 9.546408 30.096282 0.171366 1.930199 -1.367618 -0.276220 0.198620 0.068420 -0.269820 
2.017010 17.010820 -4.196180 -3.356625 19.659358 3.641023 -15.242119 12.962516 2.313801 0.964523 -0.181794 -5.390547 -3.286098 5.337831 14.886886 -0.587617 4.382980 3.267732 0.366520 -0.020240 0.250400 18.375986 -9.684011 4.370950 -2.055717 9.724718 -38.548013 17.175556 -11.563788 35.485107 -0.656296 -5.966759 2.296059 0.115680 0.340600 0.311220 -3.931573 -1.726270 -7.771963 13.095545 -3.771319 10.458323 -1.686623 -2.931503 0.323136 3.193309 1.853434 -7.140069 2.933404 -3.518130 22.566900 -3.100510 -1.238550 -12.827870 -27.803051 -8.135023 2.063078 -53.832364 -5.997936 -1.754020 -20.138662 -13.315844 0.012248 -3.934199 2.994205 0.538380 0.243260 -0.117230 0.200080 21.246916 6.493227 3.844356 51.609404 2.086654 -9.890713 11.238118 32.024381 0.527867 1.904095 -1.444045 -0.279040 0.198900 0.049030 -0.258960 
2.047100 16.965800 -4.119050 -3.596569 19.398735 4.178740 -15.222478 12.883410 2.306198 1.093343 0.046204 -4.269455 -3.520102 5.259775 13.523880 -0.592838 4.412744 3.277828 0.397580 0.027740 0.245830 18.424311 -9.702112 4.309567 0.546910 9.803439 -38.699923 14.970268 -9.049273 30.338521 -0.391018 -4.750837 2.704982 0.170830 0.382620 0.330430 -4.015321 -1.523095 -7.608098 13.851626 -3.999084 8.726839 -2.052445 -3.417686 1.268712 3.158682 1.856295 -7.115742 3.239302 -3.515032 20.570131 -3.585140 -1.227650 -11.598190 -27.283229 -8.373626 2.261799 -53.870309 -6.068631 -1.540196 -20.962417 -13.216832 0.052159 -3.979313 3.055412 0.473280 0.298180 -0.153890 0.226620 20.777901 6.443224 3.760582 51.343869 2.383254 -9.666392 11.823967 32.817956 0.581036 1.875640 -1.530793 -0.274550 0.193390 0.034390 -0.239890 
2.087470 16.907510 -4.058910 -3.147759 20.307931 5.031781 -15.236482 12.806161 2.298850 0.698895 0.307654 -3.086184 -3.260466 5.051057 12.227121 -0.650922 4.457181 3.287700 0.445700 0.093460 0.249980 18.451138 -9.642604 4.264340 1.836567 9.561775 -39.768738 13.317060 -7.149791 25.178004 -0.177785 -3.747441 3.048576 0.257410 0.445160 0.344010 -4.027564 -1.464467 -7.442328 13.961644 -4.652837 6.970147 -2.405038 -4.377422 2.382386 3.087602 1.747100 -6.960083 3.358840 -3.423845 18.338345 -3.989720 -1.374300 -11.212860 -26.326709 -8.439679 2.285555 -54.030305 -6.803902 -0.996196 -21.751416 -13.486751 0.132398 -4.045950 3.087433 0.424810 0.363640 -0.197410 0.256650 20.045160 6.152502 3.476189 50.958184 3.218278 -9.181771 12.385268 33.893574 0.678926 1.812907 -1.600645 -0.294880 0.231010 0.031680 -0.231280 
2.128460 16.818980 -3.966250 -2.012375 20.718979 5.978140 -15.284822 12.776185 2.324653 -0.612872 0.656193 -2.091929 -2.361643 4.771519 11.624084 -0.715150 4.498390 3.295395 0.478640 0.145530 0.265550 18.438732 -9.590236 4.174727 2.859917 9.127156 -40.099081 11.670289 -5.725531 20.903045 -0.019961 -3.029100 3.301949 0.338450 0.512910 0.354550 -3.921172 -1.519540 -7.268478 12.785560 -5.122983 5.254585 -2.460499 -5.179797 3.018493 3.139577 1.728616 -6.587930 3.556318 -2.856157 16.408642 -4.886370 -0.864160 -10.724680 -25.444660 -7.400130 1.973691 -54.415071 -6.935822 -0.524610 -22.430440 -13.381045 0.160129 -4.144238 3.085194 0.371870 0.443090 -0.245050 0.267840 19.260666 4.871011 2.875070 50.827344 3.961940 -8.453810 13.928436 34.900780 1.090545 1.753444 -1.656428 -0.323060 0.278300 0.040760 -0.233920 
